<svg width="512" height="512" viewBox="0 0 512 512" fill="none" xmlns="http://www.w3.org/2000/svg">
  <rect width="512" height="512" rx="112" fill="url(#paint0_linear)"/>
  <rect x="112" y="144" width="288" height="224" rx="24" fill="white"/>
  <circle cx="184" cy="256" r="40" fill="#E2E8F0"/>
  <path d="M144 336C144 313.909 161.909 296 184 296C206.091 296 224 313.909 224 336V352H144V336Z" fill="#E2E8F0"/>
  <rect x="248" y="224" width="112" height="16" rx="8" fill="#CBD5E1"/>
  <rect x="248" y="264" width="80" height="16" rx="8" fill="#E2E8F0"/>
  <rect x="248" y="304" width="96" height="16" rx="8" fill="#E2E8F0"/>
  <path d="M384 128L394.887 151.113L418 162L394.887 172.887L384 196L373.113 172.887L350 162L373.113 151.113L384 128Z" fill="#FBBF24"/>
  <defs>
    <linearGradient id="paint0_linear" x1="0" y1="0" x2="512" y2="512" gradientUnits="userSpaceOnUse">
      <stop stop-color="#3B82F6"/>
      <stop offset="1" stop-color="#1D4ED8"/>
    </linearGradient>
  </defs>
</svg>